HIERARCHY
ROOT Hips
{
  OFFSET 47.5402 103.091 -13.3365
  CHANNELS 6 Xposition Yposition Zposition Zrotation Xrotation Yrotation
  JOINT Chest
  {
    OFFSET 1.23234e-007 14.8421 1.27316e-009
    CHANNELS 6 Xposition Yposition Zposition Zrotation Xrotation Yrotation
    JOINT RightCollar
    {
      OFFSET -6.11406 27.2248 4.23427
      CHANNELS 6 Xposition Yposition Zposition Zrotation Xrotation Yrotation
      JOINT RightUpArm
      {
        OFFSET -10.4566 2.3285 -0.910794
        CHANNELS 6 Xposition Yposition Zposition Zrotation Xrotation Yrotation
        JOINT RightLowArm
        {
          OFFSET -3.86856 -25.191 -1.74633
          CHANNELS 6 Xposition Yposition Zposition Zrotation Xrotation Yrotation
          JOINT RightHand
          {
            OFFSET -1.04759 -20.6242 1.75213
            CHANNELS 6 Xposition Yposition Zposition Zrotation Xrotation Yrotation
            End Site
            {
              OFFSET -2.03487e-006 -9.50367 -4.31372e-006
            }
          }
        }
      }
    }
    JOINT LeftCollar
    {
      OFFSET 6.64893 27.3161 3.27471
      CHANNELS 6 Xposition Yposition Zposition Zrotation Xrotation Yrotation
      JOINT LeftUpArm
      {
        OFFSET 10.8584 2.41798 -0.945791
        CHANNELS 6 Xposition Yposition Zposition Zrotation Xrotation Yrotation
        JOINT LeftLowArm
        {
          OFFSET 3.77631 -24.5904 -1.70468
          CHANNELS 6 Xposition Yposition Zposition Zrotation Xrotation Yrotation
          JOINT LeftHand
          {
            OFFSET 1.01026 -21.1231 1.74131
            CHANNELS 6 Xposition Yposition Zposition Zrotation Xrotation Yrotation
            End Site
            {
              OFFSET 1.17583e-006 -9.81266 -2.89439e-008
            }
          }
        }
      }
    }
    JOINT Neck
    {
      OFFSET 0.51659 29.8236 6.51843
      CHANNELS 6 Xposition Yposition Zposition Zrotation Xrotation Yrotation
      JOINT Head
      {
        OFFSET 1.16803e-007 7.47049 6.44171e-007
        CHANNELS 6 Xposition Yposition Zposition Zrotation Xrotation Yrotation
        End Site
        {
          OFFSET -4.32676e-008 16.2908 2.16786e-007
        }
      }
    }
  }
  JOINT LeftUpLeg
  {
    OFFSET 9 -3.38008e-006 -5.23001e-009
    CHANNELS 6 Xposition Yposition Zposition Zrotation Xrotation Yrotation
    JOINT LeftLowLeg
    {
      OFFSET -0.575 -51.431 3.90177
      CHANNELS 6 Xposition Yposition Zposition Zrotation Xrotation Yrotation
      JOINT LeftFoot
      {
        OFFSET 2.13082e-007 -43.5882 -3.90177
        CHANNELS 6 Xposition Yposition Zposition Zrotation Xrotation Yrotation
        End Site
        {
          OFFSET 7.44796e-007 -6.93413 15.0046
        }
      }
    }
  }
  JOINT RightUpLeg
  {
    OFFSET -9 6.86154e-007 -3.19539e-009
    CHANNELS 6 Xposition Yposition Zposition Zrotation Xrotation Yrotation
    JOINT RightLowLeg
    {
      OFFSET 0.575 -51.4311 3.90177
      CHANNELS 6 Xposition Yposition Zposition Zrotation Xrotation Yrotation
      JOINT RightFoot
      {
        OFFSET -7.46079e-007 -43.5882 -3.90177
        CHANNELS 6 Xposition Yposition Zposition Zrotation Xrotation Yrotation
        End Site
        {
          OFFSET 4.66716e-007 -6.93413 15.0046
        }
      }
    }
  }
}
MOTION
Frames:	5
Frame Time:	0.0333333
47.5402 103.091 -13.3365 1.0274 0.0219649 -1.11943 1.23234e-007 14.8421 1.27316e-009 -0.892896 -12.8465 -0.625244 -6.11406 27.2248 4.23427 -1.96452 7.32629 3.42623 -10.4566 2.3285 -0.910794 -92.7016 -1.56056 -40.6208 -3.86856 -25.191 -1.74633 -17.9768 -3.79962 52.4547 -1.04759 -20.6242 1.75213 -5.75161 8.82567 -0.67916 6.64893 27.3161 3.27471 -2.94784 5.93879 -4.20517 10.8584 2.41798 -0.945791 95.8534 5.54512 40.9514 3.77631 -24.5904 -1.70468 15.557 -11.3294 -13.478 1.01026 -21.1231 1.74131 8.66153 6.87481 0.647914 0.51659 29.8236 6.51843 -0.70924 9.65448 -0.353302 1.16803e-007 7.47049 6.44171e-007 -0.081584 0.206315 -0.00441069 9 -3.38008e-006 -5.23001e-009 0.346213 -0.316342 6.13907 -0.575 -51.431 3.90177 -2.32761 5.16895 -2.80603 2.13082e-007 -43.5882 -3.90177 1.01989 -1.73927 -0.095116 -9 6.86154e-007 -3.19539e-009 -5.60418 3.88624 -16.443 0.575 -51.4311 3.90177 -0.0687943 3.37417 2.24656 -7.46079e-007 -43.5882 -3.90177 -3.25632 -3.86826 0.238644 
47.5563 103.092 -13.3112 1.05735 0.0353902 -1.11308 1.23234e-007 14.8421 1.27316e-009 -0.926324 -12.8639 -0.636787 -6.11406 27.2248 4.23427 -1.96452 7.32629 3.42623 -10.4566 2.3285 -0.910794 -92.6922 -1.49061 -40.2205 -3.86856 -25.191 -1.74633 -17.8282 -3.67419 52.096 -1.04759 -20.6242 1.75213 -5.36032 8.605 -0.656822 6.64893 27.3161 3.27471 -2.94784 5.93879 -4.20517 10.8584 2.41798 -0.945791 95.8765 5.52108 40.9974 3.77631 -24.5904 -1.70468 15.5672 -11.3611 -13.3802 1.01026 -21.1231 1.74131 8.6748 6.9646 0.647649 0.51659 29.8236 6.51843 -0.844069 9.6725 -0.317901 1.16803e-007 7.47049 6.44171e-007 0.158112 0.346513 -0.0679593 9 -3.38008e-006 -5.23001e-009 0.290079 -0.236342 6.10637 -0.575 -51.431 3.90177 -2.31708 4.98961 -2.77729 2.13082e-007 -43.5882 -3.90177 1.05616 -1.70686 -0.0982987 -9 6.86154e-007 -3.19539e-009 -5.72305 3.49282 -16.4963 0.575 -51.4311 3.90177 -0.129555 4.20333 2.15015 -7.46079e-007 -43.5882 -3.90177 -3.12742 -3.95278 0.230405 
47.5726 103.082 -13.2625 1.09355 -0.0543804 -1.08833 1.23234e-007 14.8421 1.27316e-009 -0.981832 -12.7463 -0.669943 -6.11406 27.2248 4.23427 -1.96452 7.32629 3.42623 -10.4566 2.3285 -0.910794 -92.6151 -1.5671 -40.6802 -3.86856 -25.191 -1.74633 -17.9862 -3.76927 52.4831 -1.04759 -20.6242 1.75213 -5.30857 8.68381 -0.656166 6.64893 27.3161 3.27471 -2.94784 5.93879 -4.20517 10.8584 2.41798 -0.945791 95.8866 5.46735 41.1984 3.77631 -24.5904 -1.70468 15.6275 -11.4289 -13.3686 1.01026 -21.1231 1.74131 8.79868 6.96663 0.655632 0.51659 29.8236 6.51843 -0.866713 9.44738 -0.299484 1.16803e-007 7.47049 6.44171e-007 0.0717445 0.534325 -0.0449803 9 -3.38008e-006 -5.23002e-009 0.234098 -0.127489 6.08545 -0.575 -51.431 3.90177 -2.31368 5.0201 -2.83377 2.13082e-007 -43.5882 -3.90177 1.10906 -1.77525 -0.102492 -9 6.86154e-007 -3.19539e-009 -5.7269 3.85285 -16.5187 0.575 -51.4311 3.90177 -0.0843823 3.72018 2.23236 -7.46079e-007 -43.5882 -3.90177 -3.19906 -3.90198 0.235024 
47.573 103.113 -13.2069 1.10641 -0.160607 -1.04775 1.23234e-007 14.8421 1.27317e-009 -0.998152 -12.6159 -0.724152 -6.11406 27.2248 4.23427 -1.96452 7.32629 3.42623 -10.4566 2.3285 -0.910794 -92.6176 -1.55382 -40.6669 -3.86856 -25.191 -1.74633 -17.9237 -3.72075 52.5878 -1.04759 -20.6242 1.75213 -5.25777 8.77502 -0.655738 6.64893 27.3161 3.27471 -2.94784 5.93879 -4.20517 10.8584 2.41798 -0.945791 95.8481 5.48476 41.1852 3.77631 -24.5904 -1.70468 15.61 -11.4097 -13.4239 1.01026 -21.1231 1.74131 8.91575 7.00581 0.662593 0.51659 29.8236 6.51843 -0.877171 9.31405 -0.260056 1.16803e-007 7.47049 6.44171e-007 0.0732844 0.652176 -0.0116692 9 -3.38008e-006 -5.23002e-009 0.232913 -0.0594435 6.09363 -0.575 -51.431 3.90177 -2.30929 5.14122 -2.83297 2.13082e-007 -43.5882 -3.90177 0.91919 -1.62072 -0.0868941 -9 6.86154e-007 -3.19539e-009 -5.73485 4.12033 -16.5644 0.575 -51.4311 3.90177 -0.0200035 3.43462 2.2885 -7.46079e-007 -43.5882 -3.90177 -3.22577 -3.78028 0.23812 
47.5623 103.128 -13.172 1.12783 -0.197219 -0.991682 1.23234e-007 14.8421 1.27318e-009 -1.04324 -12.5761 -0.778912 -6.11406 27.2248 4.23427 -1.96452 7.32629 3.42623 -10.4566 2.3285 -0.910794 -92.5747 -1.53236 -40.6156 -3.86856 -25.191 -1.74633 -17.8767 -3.70463 52.4893 -1.04759 -20.6242 1.75213 -5.34322 8.79705 -0.660071 6.64893 27.3161 3.27471 -2.94784 5.93879 -4.20517 10.8584 2.41798 -0.945791 95.8503 5.48929 41.1641 3.77631 -24.5904 -1.70468 15.6082 -11.3933 -13.5516 1.01026 -21.1231 1.74131 8.98727 6.94394 0.668135 0.51659 29.8236 6.51843 -0.81389 9.31138 -0.253234 1.16803e-007 7.47049 6.44171e-007 -0.017789 0.676678 0.0373667 9 -3.38008e-006 -5.23003e-009 0.236085 -0.0611885 6.11263 -0.575 -51.431 3.90177 -2.33519 5.23966 -2.84726 2.13082e-007 -43.5882 -3.90177 0.834625 -1.54391 -0.0799418 -9 6.86154e-007 -3.19538e-009 -5.74125 4.21848 -16.5892 0.575 -51.4311 3.90177 -0.0075878 3.3836 2.25813 -7.46079e-007 -43.5882 -3.90177 -3.24911 -3.83688 0.238669 
